<svg width="18" height="23" viewBox="0 0 18 23" fill="none" xmlns="http://www.w3.org/2000/svg">
<path d="M16.6708 22.5002L16.6707 22.5002C14.782 22.4838 12.8932 22.4879 11.006 22.4993L11.0056 22.4993C10.6719 22.5016 10.4438 22.4019 10.2167 22.1466C7.77866 19.397 5.33409 16.6528 2.89009 13.9091C2.33154 13.2821 1.77302 12.6551 1.21461 12.0281L1.21445 12.0279C0.979072 11.7639 0.931655 11.6018 0.931581 11.5007C0.931506 11.3997 0.978576 11.238 1.21299 10.9746C1.75257 10.3687 2.29226 9.76288 2.83197 9.15699C5.29485 6.39218 7.75835 3.62665 10.2153 0.855127C10.4406 0.600972 10.6692 0.500858 11.0057 0.502582C12.8927 0.514034 14.7805 0.518131 16.6699 0.501751L16.6706 0.501745C16.9434 0.498979 17.1207 0.543924 17.2387 0.613392C17.3331 0.668896 17.4258 0.761034 17.5 0.941288L17.5 0.941709L17.5 0.942547L17.5 0.943384L17.5 0.94422L17.5 0.945057L17.5 0.945894L17.5 0.94673L17.5 0.947567L17.5 0.948404L17.5 0.94924L17.5 0.950077L17.5 0.950914L17.5 0.95175L17.5 0.952587L17.5 0.953424L17.5 0.95426L17.5 0.955097L17.5 0.955933L17.5 0.95677L17.5 0.957607L17.5 0.958443L17.5 0.95928L17.5 0.960115L17.5 0.960953L17.5 0.96179L17.5 0.962625L17.5 0.963463L17.5 0.964298L17.5 0.965136L17.5 0.965971L17.5 0.966808L17.5 0.967646L17.5 0.968481L17.5 0.969318L17.5 0.970154L17.5 0.970991L17.5 0.971827L17.5 0.972664L17.5 0.973499L17.5 0.974337L17.5 0.975172L17.5 0.976009L17.5 0.976845L17.5 0.977682L17.5 0.978517L17.5 0.979355L17.5 0.98019L17.5 0.981028L17.5 0.981863L17.5 0.9827L17.5 0.983536L17.5 0.984373L17.5 0.985208L17.5 0.986046L17.5 0.986881L17.5 0.987717L17.5 0.988554L17.5 0.989389L17.5 0.990227L17.5 0.991062L17.5 0.991899L17.5 0.992735L17.5 0.993572L17.5 0.994408L17.5 0.995243L17.5 0.99608L17.5 0.996916L17.5 0.997753L17.5 0.998589L17.5 0.999424L17.5 1.00026L17.5 1.0011L17.5 1.00193L17.5 1.00277L17.5 1.0036L17.5 1.00444L17.5 1.00528L17.5 1.00611L17.5 1.00695L17.5 1.00779L17.5 1.00862L17.5 1.00946L17.5 1.01029L17.5 1.01113L17.5 1.01197L17.5 1.0128L17.5 1.01364L17.5 1.01447L17.5 1.01531L17.5 1.01615L17.5 1.01698L17.5 1.01782L17.5 1.01866L17.5 1.01949L17.5 1.02033L17.5 1.02116L17.5 1.022L17.5 1.02284L17.5 1.02367L17.5 1.02451L17.5 1.02534L17.5 1.02618L17.5 1.02702L17.5 1.02785L17.5 1.02869L17.5 1.02952L17.5 1.03036L17.5 1.0312L17.5 1.03203L17.5 1.03287L17.5 1.0337L17.5 1.03454L17.5 1.03538L17.5 1.03621L17.5 1.03705L17.5 1.03788L17.5 1.03872L17.5 1.03956L17.5 1.04039L17.5 1.04123L17.5 1.04206L17.5 1.0429L17.5 1.04374L17.5 1.04457L17.5 1.04541L17.5 1.04624L17.5 1.04708L17.5 1.04792L17.5 1.04875L17.5 1.04959L17.5 1.05042L17.5 1.05126L17.5 1.0521L17.5 1.05293L17.5 1.05377L17.5 1.0546L17.5 1.05544L17.5 1.05628L17.5 1.05711L17.5 1.05795L17.5 1.05878L17.5 1.05962L17.5 1.06046L17.5 1.06129L17.5 1.06213L17.5 1.06296L17.5 1.0638L17.5 1.06464L17.5 1.06547L17.5 1.06631L17.5 1.06714L17.5 1.06798L17.5 1.06882L17.5 1.06965L17.5 1.07049L17.5 1.07132L17.5 1.07216L17.5 1.073L17.5 1.07383L17.5 1.07467L17.5 1.0755L17.5 1.07634L17.5 1.07718L17.5 1.07801L17.5 1.07885L17.5 1.07968L17.5 1.08052L17.5 1.08136L17.5 1.08219L17.5 1.08303L17.5 1.08386L17.5 1.0847L17.5 1.08554L17.5 1.08637L17.5 1.08721L17.5 1.08804L17.5 1.08888L17.5 1.08972L17.5 1.09055L17.5 1.09139L17.5 1.09222L17.5 1.09306L17.5 1.09389L17.5 1.09473L17.5 1.09557L17.5 1.0964L17.5 1.09724L17.5 1.09808L17.5 1.09891L17.5 1.09975L17.5 1.10058L17.5 1.10142L17.5 1.10225L17.5 1.10309L17.5 1.10393L17.5 1.10476L17.5 1.1056L17.5 1.10644L17.5 1.10727L17.5 1.10811L17.5 1.10894L17.5 1.10978L17.5 1.11062L17.5 1.11145L17.5 1.11229L17.5 1.11312L17.5 1.11396L17.5 1.1148L17.5 1.11563L17.5 1.11647L17.5 1.1173L17.5 1.11814L17.5 1.11898L17.5 1.11981L17.5 1.12065L17.5 1.12148L17.5 1.12232L17.5 1.12316L17.5 1.12399L17.5 1.12483L17.5 1.12567L17.5 1.1265L17.5 1.12734L17.5 1.12817L17.5 1.12901L17.5 1.12985L17.5 1.13068L17.5 1.13152L17.5 1.13235L17.5 1.13312C17.4726 1.17698 17.4457 1.2209 17.4206 1.26195C17.396 1.30212 17.3731 1.33954 17.3531 1.37147C17.2829 1.4832 17.222 1.57125 17.1578 1.64357C15.0101 4.06329 12.8585 6.47938 10.7065 8.8959C10.1343 9.53849 9.56199 10.1811 8.98975 10.8238L8.9892 10.8245C8.9129 10.9105 8.83694 10.9981 8.75995 11.0869C8.73506 11.1156 8.71005 11.1445 8.6849 11.1734L8.39956 11.5018L8.68534 11.8298C8.71106 11.8593 8.73568 11.8876 8.75947 11.915C8.83409 12.0007 8.90055 12.0771 8.96718 12.1526L8.96876 12.1544C9.40516 12.6444 9.84159 13.1344 10.278 13.6244C12.5796 16.2086 14.8809 18.7924 17.1771 21.3804L17.1772 21.3805C17.2374 21.4482 17.2947 21.5315 17.3615 21.639C17.3802 21.6691 17.4017 21.7046 17.4249 21.7428C17.4486 21.7819 17.474 21.8239 17.5 21.866L17.5 21.8662L17.5 21.8671L17.5 21.8679L17.5 21.8687L17.5 21.8696L17.5 21.8704L17.5 21.8713L17.5 21.8721L17.5 21.8729L17.5 21.8738L17.5 21.8746L17.5 21.8754L17.5 21.8763L17.5 21.8771L17.5 21.8779L17.5 21.8788L17.5 21.8796L17.5 21.8805L17.5 21.8813L17.5 21.8821L17.5 21.883L17.5 21.8838L17.5 21.8846L17.5 21.8855L17.5 21.8863L17.5 21.8871L17.5 21.888L17.5 21.8888L17.5 21.8897L17.5 21.8905L17.5 21.8913L17.5 21.8922L17.5 21.893L17.5 21.8938L17.5 21.8947L17.5 21.8955L17.5 21.8963L17.5 21.8972L17.5 21.898L17.5 21.8988L17.5 21.8997L17.5 21.9005L17.5 21.9014L17.5 21.9022L17.5 21.903L17.5 21.9039L17.5 21.9047L17.5 21.9055L17.5 21.9064L17.5 21.9072L17.5 21.908L17.5 21.9089L17.5 21.9097L17.5 21.9106L17.5 21.9114L17.5 21.9122L17.5 21.9131L17.5 21.9139L17.5 21.9147L17.5 21.9156L17.5 21.9164L17.5 21.9172L17.5 21.9181L17.5 21.9189L17.5 21.9197L17.5 21.9206L17.5 21.9214L17.5 21.9223L17.5 21.9231L17.5 21.9239L17.5 21.9248L17.5 21.9256L17.5 21.9264L17.5 21.9273L17.5 21.9281L17.5 21.9289L17.5 21.9298L17.5 21.9306L17.5 21.9315L17.5 21.9323L17.5 21.9331L17.5 21.934L17.5 21.9348L17.5 21.9356L17.5 21.9365L17.5 21.9373L17.5 21.9381L17.5 21.939L17.5 21.9398L17.5 21.9406L17.5 21.9415L17.5 21.9423L17.5 21.9432L17.5 21.944L17.5 21.9448L17.5 21.9457L17.5 21.9465L17.5 21.9473L17.5 21.9482L17.5 21.949L17.5 21.9498L17.5 21.9507L17.5 21.9515L17.5 21.9524L17.5 21.9532L17.5 21.954L17.5 21.9549L17.5 21.9557L17.5 21.9565L17.5 21.9574L17.5 21.9582L17.5 21.959L17.5 21.9599L17.5 21.9607L17.5 21.9615L17.5 21.9624L17.5 21.9632L17.5 21.9641L17.5 21.9649L17.5 21.9657L17.5 21.9666L17.5 21.9674L17.5 21.9682L17.5 21.9691L17.5 21.9699L17.5 21.9707L17.5 21.9716L17.5 21.9724L17.5 21.9733L17.5 21.9741L17.5 21.9749L17.5 21.9758L17.5 21.9766L17.5 21.9774L17.5 21.9783L17.5 21.9791L17.5 21.9799L17.5 21.9808L17.5 21.9816L17.5 21.9824L17.5 21.9833L17.5 21.9841L17.5 21.985L17.5 21.9858L17.5 21.9866L17.5 21.9875L17.5 21.9883L17.5 21.9891L17.5 21.99L17.5 21.9908L17.5 21.9916L17.5 21.9925L17.5 21.9933L17.5 21.9942L17.5 21.995L17.5 21.9958L17.5 21.9967L17.5 21.9975L17.5 21.9983L17.5 21.9992L17.5 22L17.5 22.0008L17.5 22.0017L17.5 22.0025L17.5 22.0034L17.5 22.0042L17.5 22.005L17.5 22.0059L17.5 22.0067L17.5 22.0075L17.5 22.0084L17.5 22.0092L17.5 22.01L17.5 22.0109L17.5 22.0117L17.5 22.0125L17.5 22.0134L17.5 22.0142L17.5 22.0151L17.5 22.0159L17.5 22.0167L17.5 22.0176L17.5 22.0184L17.5 22.0192L17.5 22.0201L17.5 22.0209L17.5 22.0217L17.5 22.0226L17.5 22.0234L17.5 22.0243L17.5 22.0251L17.5 22.0259L17.5 22.0268L17.5 22.0276L17.5 22.0284L17.5 22.0293L17.5 22.0301L17.5 22.0309L17.5 22.0318L17.5 22.0326L17.5 22.0335L17.5 22.0343L17.5 22.0351L17.5 22.036L17.5 22.0368L17.5 22.0376L17.5 22.0385L17.5 22.0393L17.5 22.0402L17.5 22.041L17.5 22.0418L17.5 22.0427L17.5 22.0435L17.5 22.0443L17.5 22.0452L17.5 22.046L17.5 22.0468L17.5 22.0477L17.5 22.0485L17.5 22.0494L17.5 22.0502L17.5 22.051L17.5 22.0519L17.5 22.0527L17.5 22.0535L17.5 22.0544L17.5 22.0552L17.5 22.056L17.5 22.0569L17.5 22.0577L17.5 22.0586L17.5 22.0594L17.5 22.0594C17.426 22.2401 17.3333 22.3323 17.2391 22.3879C17.1211 22.4575 16.9438 22.5026 16.6708 22.5002Z" stroke="white"/>
</svg>
